<?xml version="1.0" encoding="iso-8859-1"?>
<!-- Generator: Adobe Illustrator 18.0.0, SVG Export Plug-In . SVG Version: 6.00 Build 0)  -->
<!DOCTYPE svg PUBLIC "-//W3C//DTD SVG 1.1//EN" "http://www.w3.org/Graphics/SVG/1.1/DTD/svg11.dtd">
<svg version="1.1" id="Capa_1" xmlns="http://www.w3.org/2000/svg" xmlns:xlink="http://www.w3.org/1999/xlink" x="0px" y="0px"
	 viewBox="0 0 201.341 201.341" style="enable-background:new 0 0 201.341 201.341;" xml:space="preserve">
<g>
	<path style="fill:#F7F2E8;" d="M137.303,35.996c0,0-28.395,6.012-32.395,58.679c0,0,48.83,15.629,84-8
		c0,0-5.994-41.436-32.922-46.382L137.303,35.996z"/>
	<path style="fill:#EABB98;" d="M154.748,80.263c4.74-1.326,8.717-3.634,11.363-6.545c1.602-0.021,3.582-1.737,4.795-4.322
		c1.445-3.081,1.25-6.218-0.434-7.005c-0.387-0.183-0.822-0.218-1.277-0.136c-2.123-7.5-11.945-13.171-23.75-13.171
		c-10.541,0-19.5,4.524-22.811,10.834c-0.584-0.468-1.219-0.698-1.852-0.604c-1.84,0.27-2.943,3.129-2.461,6.383
		c0.479,3.255,2.357,5.674,4.199,5.403c0.104-0.016,0.205-0.042,0.305-0.073c2.279,4.039,6.9,7.3,12.748,9.059l-31.334,53.255
		l31.666-42.69l17.234-2l26.434,40.69L154.748,80.263z"/>
	<path style="fill:#F9EDDC;" d="M138.5,113.332l-3.594-24.682c0,0,6.656-4.254,9.066-4.297c2.674-0.047,10.168,4.297,10.168,4.297
		l-4.1,24.569L138.5,113.332z"/>
	<path style="fill:#351F10;" d="M156.506,39.704c2.631-3.09,13.625-17.417-5.465-20.843c-19.141-3.435-14.805,14.445-13.885,17.647
		c-21.477,2.294-16.889,25.49-16.889,25.49s15.936,1.374,24.178-12.915c0,0,5.084,15.525,24.318,16.624
		C168.764,65.708,171.635,47.44,156.506,39.704z"/>
	<ellipse style="fill:#351F10;" cx="134.881" cy="62.925" rx="2.139" ry="2.318"/>
	<ellipse style="fill:#351F10;" cx="153.025" cy="63.957" rx="2.138" ry="2.318"/>
	<path style="fill:#F9EDDC;" d="M157.703,39.172c1.143-0.735,4.668-3.614,2.748-5.114c-1.506-1.179-5.436,2.122-5.223,3.419
		c0.027-1.678-0.551-5.52-2.838-4.222c-1.611,0.914-0.875,5.335,0.158,6.65c-1.158-1.874-5.729-1.671-6.104,0.272
		c-0.648,3.384,4.559,3.516,6.611,2.323c-1.381,1.631-3.459,4.329-1.459,5.751c0.195,0.139,2.205,0.152,2.455,0.019
		c0.646-0.345,1.227-1.346,1.471-2.283c0.189,1.554,0.9,3.338,2.311,3.177c2.869-0.327,1.844-5.756,0.781-7.018
		c1.408,1.285,4.037,1.111,4.432-0.706C163.721,38.334,159.651,37.836,157.703,39.172z"/>
	<path style="fill:#FFF7E9;" d="M98.241,192.008c0,0,12.33-86.118,49.771-79.277c37.441,6.839,49.563,74.61,49.563,74.61
		S159.574,213.341,98.241,192.008z"/>
	<path style="fill:#F9EDDC;" d="M193.709,168.033c0,0-9.155-59.41-48.512-55.289c0.024-0.217,0.034-0.335,0.034-0.335
		c-40-0.5-43,60-43,60c34.614-12.426,41.657-50.054,42.803-58.361C146.792,121.428,157.46,159.109,193.709,168.033z"/>
	<g>
		<path style="fill:#351F10;" d="M79.254,141.812l-5.534-35.924l31.188,26.119l-30.6-49.957l-39.4,1.29l-32.667,56l32.501-34.27
			l-6.237,35.681l6.814,0.127l7.23,51.336l-12.309,9.127l18.667-1v-9.655c0,0,6.03-46.813,6.03-45.576c0,1.236,0,54.931,0,54.931
			l21.019-0.237l-12.382-7.462l10.904-50.743L79.254,141.812z"/>
		<polygon style="fill:#E2D4BF;" points="41.248,78.554 56.453,124.88 65.976,77.73 		"/>
		<g>
			<path style="fill:#EABB98;" d="M86.278,58.478c0.459-4.072-1.555-7.642-4.494-7.972c-1.185-0.133-2.336,0.285-3.323,1.092
				c-4.23-6.424-14.064-10.649-25.317-10.132C41.07,42.024,31.121,47.872,28.169,55.4c-1.521-1.229-3.313-1.706-4.889-1.104
				c-2.765,1.054-3.825,5.012-2.364,8.839c1.46,3.829,4.885,6.078,7.65,5.023c0.425-0.161,0.803-0.399,1.144-0.687
				c4.352,6.228,14.038,10.29,25.083,9.78c11.19-0.516,20.549-5.571,24.216-12.3c0.352,0.15,0.723,0.254,1.111,0.299
				C83.062,65.581,85.817,62.549,86.278,58.478z"/>
			<g>
				
					<ellipse transform="matrix(0.9667 0.2557 -0.2557 0.9667 15.7937 -9.6987)" style="fill:#351F10;" cx="45.189" cy="55.88" rx="2.138" ry="2.318"/>
				
					<ellipse transform="matrix(0.9667 0.2558 -0.2558 0.9667 16.3922 -14.3883)" style="fill:#351F10;" cx="63.51" cy="55.823" rx="2.138" ry="2.317"/>
			</g>
			<path style="fill:#351F10;" d="M26.987,43.242c-1.7,4.554-1.9,9.708,0.471,15.407c0,0,5.263-12.54,21.699-15.407H26.987z"/>
			<path style="fill:#351F10;" d="M59.398,43.242c13.808,2.754,22.033,16.042,22.033,16.042s1.196-7.299-2.029-16.042H59.398z"/>
		</g>
		<path style="fill:#665E5A;" d="M42.1,78.341l-10.285,5.243c0,0,8.55,32.627,24.212,40.87L42.1,78.341z"/>
		<path style="fill:#665E5A;" d="M63.291,74.859l-6.838,50.021c0,0,15.734-23.458,19.855-42.829L63.291,74.859z"/>
		<polygon style="fill:#FFFFFF;" points="53.734,77.119 39.882,70.335 41.333,87.978 53.944,80.471 67.098,87.996 66.884,70.427 		
			"/>
		<g>
			<rect x="17.897" y="37.242" style="fill:#351F10;" width="71.834" height="6.666"/>
			<rect x="34.148" y="8.909" style="fill:#351F10;" width="37.083" height="29.333"/>
			<rect x="34.148" y="29.116" style="fill:#665E5A;" width="37.083" height="8.148"/>
		</g>
	</g>
	<g>
		<path style="fill:#FFF7E9;" d="M181.602,139.132c0,0,2.717,9.428,7.672,13.264l2.715-1.439c0,0-8.947-10.066-9.428-13.263
			L181.602,139.132z"/>
		<path style="fill:#FFF7E9;" d="M179.844,137.533l-1.598-1.438c-0.479,0-5.434,16.14,3.355,25.408l4.635-2.877
			C186.237,158.627,177.768,147.281,179.844,137.533z"/>
		<path style="fill:#FFF7E9;" d="M196.555,121.42c3.648-2.904-3.395-3.682-5.291-3.44c1.055-0.135,0.484-3.094-0.064-3.528
			c-1.234-0.977-3.49-0.031-4.602,0.656c0.652-1.605,0.74-3.497-1.449-3.552c-2.215-0.054-3.811,2.291-4.775,3.962
			c0.057-1.523-0.324-3.75-2.35-3.394c-2.236,0.396-2.299,3.35-1.951,5.031c-0.449-1.439-1.375-3.529-3.139-2.294
			c-1.807,1.267-0.912,4.023-0.143,5.575c-1.131-0.521-3.393-1.591-4.465-0.438c-1.064,1.146,0.197,3.05,0.957,3.992
			c-2.082,1.585-3.135,4.227-0.146,5.392c-1.066,0.932-1.914,2.456-0.727,3.655c1.352,1.366,3.746,0.419,5.328,0.089
			c-1.695,1.209-2.85,3.994-0.281,4.948c1.754,0.651,4.043-0.212,5.332-1.411c-0.742,1.289-1.49,4.325,0.658,4.37
			c1.492,0.031,2.826-1.642,3.77-2.585c-0.383,1.379-0.473,4.047,1.512,4.205c1.848,0.148,2.979-2.622,3.512-3.979
			c3.121,3.163,4.482-0.938,5.053-3.8c0.732,2.358,3.434,1.392,4.367-0.325c1.242-2.277-0.551-5.399-1.619-7.408
			c1.516,0.689,2.754,0.378,3.02-1.386C199.344,123.878,198.008,122.367,196.555,121.42z"/>
	</g>
	<path style="fill:#FFF7E9;" d="M119.533,107.349l-15.293,25.992l18.386-24.787C121.6,108.135,120.569,107.732,119.533,107.349z"/>
	<path style="fill:#FFF7E9;" d="M165.386,107.499l14.189,21.841l-11.9-23.523C166.894,106.356,166.131,106.915,165.386,107.499z"/>
	<path style="fill:#FE0000;" d="M124.386,4.976c-5.376-9.387-15.816-3.46-18.974,1.242C102.255,1.516,91.815-4.41,86.439,4.976
		c-7.047,12.303,9.806,22.316,18.818,27.344c0,0,0.105,0.115,0.155,0.087c0.05,0.028,0.155-0.087,0.155-0.087
		C114.58,27.292,131.432,17.279,124.386,4.976z"/>
</g>
<g>
</g>
<g>
</g>
<g>
</g>
<g>
</g>
<g>
</g>
<g>
</g>
<g>
</g>
<g>
</g>
<g>
</g>
<g>
</g>
<g>
</g>
<g>
</g>
<g>
</g>
<g>
</g>
<g>
</g>
</svg>
