<?xml version="1.0" encoding="UTF-8" standalone="no"?>
<!-- Created with Inkscape (http://www.inkscape.org/) -->

<svg
   width="37.093487mm"
   height="26.494955mm"
   viewBox="0 0 37.093487 26.494955"
   version="1.1"
   id="svg3452"
   inkscape:version="1.1.1 (3bf5ae0d25, 2021-09-20)"
   sodipodi:docname="logo.png.svg"
   xmlns:inkscape="http://www.inkscape.org/namespaces/inkscape"
   xmlns:sodipodi="http://sodipodi.sourceforge.net/DTD/sodipodi-0.dtd"
   xmlns="http://www.w3.org/2000/svg"
   xmlns:svg="http://www.w3.org/2000/svg">
  <sodipodi:namedview
     id="namedview3454"
     pagecolor="#ffffff"
     bordercolor="#666666"
     borderopacity="1.0"
     inkscape:pageshadow="2"
     inkscape:pageopacity="0.0"
     inkscape:pagecheckerboard="0"
     inkscape:document-units="mm"
     showgrid="false"
     inkscape:zoom="0.4641344"
     inkscape:cx="386.74143"
     inkscape:cy="200.373"
     inkscape:window-width="1366"
     inkscape:window-height="699"
     inkscape:window-x="0"
     inkscape:window-y="32"
     inkscape:window-maximized="1"
     inkscape:current-layer="layer1"
     fit-margin-top="0"
     fit-margin-left="0"
     fit-margin-right="0"
     fit-margin-bottom="0" />
  <defs
     id="defs3449" />
  <g
     inkscape:label="Camada 1"
     inkscape:groupmode="layer"
     id="layer1"
     transform="translate(-2.9100067,-4.6975247)">
    <g
       id="g2973"
       transform="matrix(0.35277777,0,0,-0.35277777,-15.50298,108.6932)"
       style="fill:#ffffff">
      <g
         id="g1107"
         transform="translate(122.9469,262.9094)"
         style="fill:#ffffff">
        <path
           d="M 0,0 C -0.011,-0.015 -0.024,-0.026 -0.036,-0.041 -0.04,-0.048 -0.041,-0.058 -0.045,-0.063 Z"
           style="fill:#ffffff;fill-opacity:1;fill-rule:nonzero;stroke:none"
           id="path1109" />
      </g>
      <g
         id="g1111"
         transform="translate(148.713,248.5319)"
         style="fill:#ffffff">
        <path
           d="m 0,0 c -2.351,-5.609 -6.096,-10.548 -10.153,-14.839 -4.516,-4.778 -9.722,-8.895 -15.21,-12.302 -0.578,-0.02 -1.257,0.753 -1.649,1.096 -0.6,0.525 -1.195,1.055 -1.791,1.585 -1.194,1.057 -2.388,2.114 -3.56,3.198 -2.34,2.17 -4.646,4.38 -6.87,6.686 -4.137,4.287 -8.302,8.804 -11.086,14.262 -2.612,5.119 -3.861,11.223 -2.138,16.901 1.483,4.888 5.643,8.798 10.552,8.965 1.274,0.043 2.693,-0.142 3.889,-0.624 1.512,-0.606 2.814,-1.64 4.038,-2.748 1.286,-1.163 2.513,-2.396 3.684,-3.693 -0.034,-0.36 0.288,-0.641 0.615,-0.668 0.992,-1.086 1.995,-2.157 2.975,-3.252 -0.003,-0.014 -0.01,-0.025 -0.012,-0.039 -0.013,-0.075 -0.019,-0.155 0,-0.231 0.023,-0.091 0.075,-0.168 0.144,-0.224 0.124,-0.104 0.313,-0.128 0.448,-0.034 0.071,0.048 0.139,0.099 0.204,0.157 0.048,0.041 0.082,0.09 0.118,0.14 0.059,0.081 0.108,0.163 0.13,0.264 0.125,0.166 0.255,0.326 0.401,0.474 0.082,0.082 0.13,0.218 0.13,0.337 0,0.063 -0.018,0.131 -0.043,0.196 3.585,4.8 8.583,8.752 14.305,9.855 2.625,0.506 5.393,0.185 7.783,-1.123 2.478,-1.357 4.022,-3.684 4.84,-6.502 C 3.446,11.969 2.304,5.494 0,0 m -51.787,-5.711 c -0.88,-0.606 -1.768,-1.2 -2.662,-1.779 -0.867,-0.563 -1.774,-1.043 -2.656,-1.576 -0.441,-0.266 -0.885,-0.522 -1.326,-0.789 -0.178,-0.106 -0.628,-0.495 -0.949,-0.586 -0.129,0.195 -0.352,0.321 -0.605,0.253 -0.03,-0.008 -0.054,-0.029 -0.081,-0.041 -1.574,0.261 -3.055,0.824 -4.54,1.431 -1.495,0.61 -2.933,1.341 -4.334,2.167 -2.752,1.624 -5.433,3.343 -8.081,5.155 -5.094,3.485 -10.058,7.373 -13.834,12.492 -1.921,2.606 -3.47,5.511 -4.084,8.795 -0.536,2.871 -0.35,5.876 0.421,8.677 0.793,2.88 2.253,5.549 4.252,7.655 2.22,2.339 5.071,3.601 8.173,3.703 7.355,0.244 13.382,-4.987 18.613,-9.899 0.115,-0.109 0.246,-0.123 0.364,-0.088 0.071,-0.171 0.334,-0.254 0.47,-0.049 4.462,6.71 10.259,13.26 18.189,14.626 3.274,0.564 6.865,0.181 9.843,-1.444 3.344,-1.827 5.451,-5.065 6.277,-8.965 1.016,-4.795 0.026,-10.022 -1.625,-14.566 -0.951,1.067 -1.925,2.109 -2.963,3.092 -2.043,1.938 -4.541,4.056 -7.327,4.447 -5.129,0.717 -10.287,-2.649 -12.669,-7.448 -2.784,-5.609 -2.186,-12.417 0.159,-18.064 0.83,-1.999 1.873,-3.88 3.037,-5.68 -0.599,-0.604 -1.376,-1.046 -2.062,-1.519 M 3.736,17.37 c -0.756,3.188 -2.243,6.079 -4.839,7.93 -2.33,1.663 -5.275,2.323 -8.044,2.038 -3.548,-0.367 -6.757,-2.045 -9.586,-4.304 -2.603,-2.076 -4.952,-4.441 -6.963,-7.17 -0.075,-0.022 -0.145,-0.055 -0.205,-0.115 -0.146,-0.153 -0.284,-0.315 -0.411,-0.487 -0.014,-0.02 -0.028,-0.041 -0.041,-0.061 -0.889,1.083 -1.777,2.164 -2.686,3.217 0.923,2.281 1.822,4.582 2.331,7.015 0.509,2.435 0.684,4.897 0.378,7.374 -0.546,4.406 -2.607,8.443 -6.131,10.882 -3.068,2.124 -6.919,2.876 -10.52,2.46 -3.942,-0.454 -7.522,-2.3 -10.638,-4.884 -3.642,-3.021 -6.58,-6.792 -9.227,-10.807 -0.02,0.032 -0.037,0.065 -0.071,0.094 -4.958,4.41 -10.153,9.19 -16.778,10.127 -3.048,0.431 -6.265,0.005 -8.961,-1.651 -2.665,-1.637 -4.754,-4.324 -6.065,-7.277 -2.571,-5.792 -2.404,-12.734 0.628,-18.285 3.269,-5.986 8.554,-10.566 13.864,-14.363 2.728,-1.952 5.515,-3.802 8.264,-5.72 2.823,-1.969 5.884,-3.821 9.19,-4.638 0.838,-0.209 1.692,-0.36 2.544,-0.483 0.003,-0.002 0.005,0 0.007,0 0.088,-0.05 0.187,-0.086 0.306,-0.098 1.092,-0.104 2.096,0.57 3.025,1.089 1.05,0.586 2.051,1.252 3.082,1.868 1.001,0.599 1.998,1.207 2.979,1.844 0.759,0.493 1.376,1.007 1.816,1.768 2.197,-3.189 4.78,-6.105 7.382,-8.848 2.632,-2.776 5.421,-5.381 8.241,-7.929 1.401,-1.266 2.796,-2.532 4.201,-3.791 0.693,-0.618 1.376,-1.251 2.074,-1.865 0.443,-0.388 0.889,-0.669 1.393,-0.783 0.216,-0.32 0.596,-0.5 0.993,-0.231 10.244,6.914 20.164,15.298 25.718,27.138 2.747,5.854 4.289,12.45 2.75,18.946"
           style="fill:#ffffff;fill-opacity:1;fill-rule:nonzero;stroke:none"
           id="path1113" />
      </g>
      <g
         id="g1115"
         transform="translate(122.3864,264.7092)"
         style="fill:#ffffff">
        <path
           d="M 0,0 C 0.004,0 0.004,0.01 0,0.01"
           style="fill:#ffffff;fill-opacity:1;fill-rule:nonzero;stroke:#000000;stroke-width:0.75;stroke-linecap:round;stroke-linejoin:round;stroke-miterlimit:4;stroke-dasharray:none;stroke-opacity:1"
           id="path1117" />
      </g>
      <g
         id="g1119"
         transform="translate(150.6823,260.215)"
         style="fill:#ffffff">
        <path
           d="M 0,0 C 0.005,0 0.005,0.008 0,0.008"
           style="fill:#ffffff;fill-opacity:1;fill-rule:nonzero;stroke:#000000;stroke-width:0.75;stroke-linecap:round;stroke-linejoin:round;stroke-miterlimit:4;stroke-dasharray:none;stroke-opacity:1"
           id="path1121" />
      </g>
      <g
         id="g1123"
         transform="translate(120.1193,280.7473)"
         style="fill:#ffffff">
        <path
           d="m 0,0 c -0.322,2.139 -0.934,4.296 -2.089,6.09 -0.99,1.536 -2.297,2.781 -3.834,3.658 -1.723,0.979 -3.625,1.622 -5.562,1.851 -0.121,0.014 -0.121,-0.19 0,-0.205 3.373,-0.397 6.63,-2.152 8.641,-5.15 2.207,-3.29 2.606,-7.955 1.958,-11.847 -0.184,-1.105 -0.41,-2.195 -0.737,-3.262 -0.163,-0.536 -0.347,-1.069 -0.547,-1.591 -0.208,-0.538 -0.509,-1.059 -0.587,-1.64 -0.01,-0.062 -0.007,-0.123 0.001,-0.181 0.15,-0.18 0.296,-0.365 0.44,-0.548 0.15,-0.035 0.317,0.003 0.467,0.161 0.686,0.721 1.007,1.978 1.292,2.941 0.315,1.067 0.549,2.165 0.696,3.275 C 0.42,-4.322 0.316,-2.114 0,0"
           style="fill:#ffffff;fill-opacity:1;fill-rule:nonzero;stroke:none"
           id="path1125" />
      </g>
      <g
         id="g1127"
         transform="translate(117.7023,283.1633)"
         style="fill:#ffffff">
        <path
           d="m 0,0 c 0.518,-2.144 0.528,-4.418 0.143,-6.591 -0.395,-2.217 -1.309,-4.249 -2.161,-6.296 -0.004,-0.011 -0.003,-0.021 -0.007,-0.035 0.344,-0.318 0.676,-0.65 0.996,-0.996 0.087,0.06 0.167,0.142 0.231,0.266 0.897,1.74 1.438,3.642 1.762,5.593 0.309,1.853 0.44,3.704 0.206,5.576 -0.429,3.426 -1.942,6.707 -4.644,8.682 -1.367,0.998 -2.98,1.69 -4.627,1.868 -0.076,0.009 -0.078,-0.122 0,-0.128 C -4.058,7.638 -0.983,4.063 0,0"
           style="fill:#ffffff;fill-opacity:1;fill-rule:nonzero;stroke:none"
           id="path1129" />
      </g>
      <g
         id="g1131"
         transform="translate(117.2423,281.8034)"
         style="fill:#ffffff">
        <path
           d="m 0,0 c -0.646,3.492 -3.025,6.576 -6.079,7.956 -0.075,0.033 -0.108,-0.099 -0.032,-0.131 3.069,-1.329 4.995,-4.573 5.44,-8.024 0.237,-1.849 -0.071,-3.774 -0.696,-5.505 -0.313,-0.865 -0.713,-1.701 -1.177,-2.484 -0.213,-0.359 -0.44,-0.713 -0.684,-1.053 -0.132,-0.187 -0.278,-0.366 -0.404,-0.558 -0.011,-0.017 -0.019,-0.034 -0.027,-0.051 0.077,-0.073 0.152,-0.151 0.219,-0.233 0.358,-0.243 0.711,-0.495 1.051,-0.77 0.129,0.14 0.256,0.294 0.382,0.49 0.278,0.436 0.527,0.897 0.755,1.365 0.45,0.938 0.819,1.924 1.068,2.945 C 0.299,-4.072 0.371,-2.008 0,0"
           style="fill:#ffffff;fill-opacity:1;fill-rule:nonzero;stroke:none"
           id="path1133" />
      </g>
      <g
         id="g1135"
         transform="translate(113.5182,286.7936)"
         style="fill:#ffffff">
        <path
           d="m 0,0 c -0.043,0.058 -0.117,-0.024 -0.076,-0.08 1.732,-2.301 2.213,-5.378 1.532,-8.224 -0.301,-1.258 -0.818,-2.404 -1.537,-3.447 -0.36,-0.522 -0.762,-0.999 -1.194,-1.454 -0.082,-0.086 -0.149,-0.165 -0.223,-0.248 0.078,-0.063 0.162,-0.118 0.237,-0.182 0.343,-0.287 0.675,-0.589 0.998,-0.901 0.578,0.559 1.063,1.293 1.412,1.905 0.73,1.281 1.214,2.777 1.376,4.265 C 2.855,-5.352 1.77,-2.313 0,0"
           style="fill:#ffffff;fill-opacity:1;fill-rule:nonzero;stroke:none"
           id="path1137" />
      </g>
      <g
         id="g1139"
         transform="translate(113.9782,283.8962)"
         style="fill:#ffffff">
        <path
           d="m 0,0 c -0.008,0.018 -0.032,0.002 -0.024,-0.014 0.724,-1.83 0.396,-3.838 -0.51,-5.527 -0.387,-0.72 -0.88,-1.348 -1.425,-1.935 -0.273,-0.293 -0.56,-0.569 -0.859,-0.829 -0.322,-0.276 -0.71,-0.495 -0.89,-0.909 -0.232,-0.534 0.147,-1.057 0.683,-0.955 0.47,0.088 0.816,0.517 1.134,0.869 0.321,0.354 0.618,0.73 0.896,1.121 0.54,0.76 0.963,1.626 1.258,2.527 C 0.854,-3.842 0.754,-1.741 0,0"
           style="fill:#ffffff;fill-opacity:1;fill-rule:nonzero;stroke:none"
           id="path1141" />
      </g>
      <g
         id="g1143"
         transform="translate(113.4406,281.3386)"
         style="fill:#ffffff">
        <path
           d="m 0,0 c -0.322,-1.516 -1.286,-2.673 -2.308,-3.723 -0.459,-0.47 -0.984,-0.856 -1.548,-1.169 -0.262,-0.146 -0.533,-0.261 -0.809,-0.374 -0.351,-0.144 -0.734,-0.236 -0.925,-0.625 -0.117,-0.238 -0.064,-0.563 0.172,-0.699 0.697,-0.407 1.53,0.335 2.043,0.798 0.542,0.492 0.991,1.083 1.44,1.67 0.916,1.193 1.814,2.531 2.098,4.074 C 0.184,0.065 0.024,0.116 0,0"
           style="fill:#ffffff;fill-opacity:1;fill-rule:nonzero;stroke:none"
           id="path1145" />
      </g>
      <g
         id="g1147"
         transform="translate(98.7794,246.0954)"
         style="fill:#ffffff">
        <path
           d="m 0,0 c -0.826,-0.358 -1.523,-1.086 -2.241,-1.647 -0.777,-0.607 -1.524,-1.252 -2.287,-1.878 -1.502,-1.231 -3.071,-2.332 -4.711,-3.342 -0.072,-0.043 -0.009,-0.157 0.064,-0.117 1.67,0.927 3.331,1.878 4.988,2.834 0.814,0.471 1.624,0.945 2.392,1.502 0.74,0.535 1.69,1.059 2.245,1.819 C 0.695,-0.495 0.484,0.21 0,0"
           style="fill:#ffffff;fill-opacity:1;fill-rule:nonzero;stroke:none"
           id="path1149" />
      </g>
      <g
         id="g1151"
         transform="translate(97.6618,248.1276)"
         style="fill:#ffffff">
        <path
           d="m 0,0 c -0.291,-0.231 -0.479,-0.524 -0.688,-0.839 -0.222,-0.331 -0.466,-0.646 -0.71,-0.957 -0.501,-0.642 -1.049,-1.251 -1.606,-1.839 -1.219,-1.287 -2.543,-2.429 -3.921,-3.513 -0.047,-0.038 -0.003,-0.121 0.047,-0.085 1.43,1.082 2.827,2.216 4.254,3.304 0.64,0.49 1.288,0.97 1.891,1.511 0.566,0.508 1.254,1.235 1.301,2.068 C 0.584,-0.062 0.228,0.183 0,0"
           style="fill:#ffffff;fill-opacity:1;fill-rule:nonzero;stroke:none"
           id="path1153" />
      </g>
      <g
         id="g1155"
         transform="translate(96.7853,250.3972)"
         style="fill:#ffffff">
        <path
           d="m 0,0 c -0.054,0.185 -0.271,0.205 -0.368,0.053 -0.344,-0.547 -0.568,-1.181 -0.841,-1.77 -0.294,-0.629 -0.667,-1.227 -1.046,-1.801 -0.888,-1.343 -1.918,-2.565 -2.946,-3.785 -0.046,-0.055 0.028,-0.134 0.075,-0.08 0.584,0.653 1.164,1.314 1.769,1.946 0.546,0.569 1.133,1.095 1.685,1.661 C -0.792,-2.872 0.415,-1.43 0,0"
           style="fill:#ffffff;fill-opacity:1;fill-rule:nonzero;stroke:none"
           id="path1157" />
      </g>
      <g
         id="g1159"
         transform="translate(95.7692,254.2282)"
         style="fill:#ffffff">
        <path
           d="m 0,0 c -0.059,0.227 -0.382,0.237 -0.436,0 -0.155,-0.683 -0.194,-1.388 -0.312,-2.079 -0.122,-0.724 -0.236,-1.442 -0.45,-2.143 -0.44,-1.439 -1.2,-2.726 -2.23,-3.761 -0.034,-0.034 0.015,-0.086 0.05,-0.054 1.065,1.02 1.967,2.254 2.617,3.619 C -0.139,-3.109 0.388,-1.472 0,0"
           style="fill:#ffffff;fill-opacity:1;fill-rule:nonzero;stroke:none"
           id="path1161" />
      </g>
      <g
         id="g1163"
         transform="translate(94.9787,257.9582)"
         style="fill:#ffffff">
        <path
           d="m 0,0 c -0.028,0.155 -0.279,0.162 -0.3,0 -0.092,-0.722 -0.093,-1.451 -0.164,-2.176 -0.08,-0.811 -0.221,-1.625 -0.412,-2.414 -0.374,-1.545 -0.991,-3.006 -1.821,-4.329 -0.035,-0.058 0.049,-0.108 0.086,-0.054 0.884,1.31 1.585,2.75 2.061,4.285 C -0.103,-3.245 0.264,-1.52 0,0"
           style="fill:#ffffff;fill-opacity:1;fill-rule:nonzero;stroke:none"
           id="path1165" />
      </g>
      <g
         id="g1167"
         transform="translate(85.0773,240.6159)"
         style="fill:#ffffff">
        <path
           d="m 0,0 c -4.218,1.935 -8.089,4.473 -11.831,7.301 -3.746,2.834 -7.332,5.967 -10.552,9.475 -3.216,3.502 -6.048,7.771 -6.453,12.816 -0.364,4.529 1.673,9.146 4.679,12.266 1.554,1.614 3.515,2.815 5.71,2.921 1.332,0.065 2.672,-0.177 3.978,-0.432 1.446,-0.284 2.739,-0.801 4.085,-1.429 0.101,-0.048 0.191,0.101 0.089,0.164 -1.135,0.691 -2.299,1.33 -3.452,1.985 -1.057,0.6 -2.2,0.994 -3.387,1.138 -2.184,0.261 -4.471,-0.269 -6.349,-1.5 -3.747,-2.457 -6.234,-7.356 -6.742,-11.961 -0.579,-5.245 1.871,-10.247 4.963,-14.115 3.142,-3.925 6.921,-7.262 10.827,-10.274 C -10,4.936 -5.038,2.268 -0.064,-0.118 0.01,-0.153 0.075,-0.035 0,0"
           style="fill:#ffffff;fill-opacity:1;fill-rule:nonzero;stroke:none"
           id="path1169" />
      </g>
      <g
         id="g1171"
         transform="translate(75.298,247.7897)"
         style="fill:#ffffff">
        <path
           d="m 0,0 c -2.733,2.237 -5.325,4.655 -7.801,7.212 -2.328,2.403 -4.617,4.926 -6.404,7.83 -1.721,2.794 -2.875,6.085 -2.718,9.478 0.134,2.878 1.34,5.377 3.227,7.386 1.015,1.08 2.182,1.926 3.477,2.571 1.3,0.648 2.704,1.166 4.141,1.29 0.159,0.015 0.221,0.285 0.04,0.321 -1.296,0.265 -2.667,0.338 -3.955,-0.022 -1.331,-0.37 -2.607,-1.049 -3.712,-1.922 -2.226,-1.757 -3.87,-4.379 -4.388,-7.312 -0.637,-3.613 0.345,-7.255 2.001,-10.395 1.693,-3.213 4.142,-5.792 6.658,-8.262 C -6.448,5.243 -3.288,2.521 -0.03,-0.053 0,-0.075 0.028,-0.023 0,0"
           style="fill:#ffffff;fill-opacity:1;fill-rule:nonzero;stroke:none"
           id="path1173" />
      </g>
      <g
         id="g1175"
         transform="translate(66.2306,258.3703)"
         style="fill:#ffffff">
        <path
           d="m 0,0 c -0.673,0.873 -1.325,1.765 -1.933,2.691 -1.166,1.777 -2.09,3.7 -2.683,5.78 -1.071,3.76 -0.943,7.946 1.556,11.031 0.592,0.73 1.268,1.373 1.928,2.028 0.721,0.716 1.428,1.177 2.394,1.418 0.129,0.033 0.1,0.248 -0.031,0.245 C -0.536,23.175 -2.305,22.77 -3.642,21.47 -4.988,20.159 -5.89,18.265 -6.251,16.368 -7.132,11.736 -5.43,7.249 -2.879,3.575 -2.158,2.537 -1.403,1.53 -0.601,0.564 -0.203,0.084 0.204,-0.388 0.614,-0.854 0.751,-1.009 0.901,-1.167 1.053,-1.328 1.048,-1.322 1.043,-1.314 1.039,-1.31 0.683,-0.882 0.34,-0.442 0,0"
           style="fill:#ffffff;fill-opacity:1;fill-rule:nonzero;stroke:none"
           id="path1177" />
      </g>
      <g
         id="g1179"
         transform="translate(68.3654,255.8337)"
         style="fill:#ffffff">
        <path
           d="M 0,0 C -0.087,0.065 -0.169,0.143 -0.25,0.221 -0.186,0.126 -0.116,0.032 -0.062,-0.066 -0.027,-0.131 0.064,-0.047 0,0"
           style="fill:#ffffff;fill-opacity:1;fill-rule:nonzero;stroke:none"
           id="path1181" />
      </g>
      <g
         id="g1183"
         transform="translate(67.2833,257.0422)"
         style="fill:#ffffff">
        <path
           d="M 0,0 C 0.262,-0.316 0.53,-0.691 0.833,-0.987 0.595,-0.641 0.297,-0.312 0,0"
           style="fill:#ffffff;fill-opacity:1;fill-rule:nonzero;stroke:none"
           id="path1185" />
      </g>
      <g
         id="g1187"
         transform="translate(66.4215,278.6115)"
         style="fill:#ffffff">
        <path
           d="m 0,0 c -1.233,-0.443 -2.375,-1.047 -3.12,-2.224 -0.776,-1.226 -1.129,-2.724 -1.211,-4.189 -0.197,-3.508 1.275,-6.977 2.677,-10.055 0.044,-0.095 0.175,-0.011 0.134,0.085 -1.27,2.974 -2.377,6.243 -1.792,9.562 0.22,1.246 0.654,2.44 1.248,3.539 0.594,1.098 1.17,2.309 2.154,3.054 C 0.19,-0.151 0.134,0.048 0,0"
           style="fill:#ffffff;fill-opacity:1;fill-rule:nonzero;stroke:none"
           id="path1189" />
      </g>
      <g
         id="g1191"
         transform="translate(103.028,292.0612)"
         style="fill:#ffffff">
        <path
           d="m 0,0 c -3.339,-1.069 -6.435,-2.983 -8.995,-5.512 -1.415,-1.397 -2.677,-2.983 -3.869,-4.597 -0.581,-0.787 -1.149,-1.584 -1.71,-2.387 -0.553,-0.791 -1.261,-1.631 -1.596,-2.56 -0.108,-0.299 0.266,-0.439 0.449,-0.28 0.7,0.603 1.214,1.567 1.747,2.336 0.561,0.807 1.13,1.61 1.72,2.394 1.148,1.526 2.355,3 3.66,4.376 2.495,2.627 5.23,5.006 8.624,6.113 C 0.099,-0.094 0.07,0.023 0,0"
           style="fill:#ffffff;fill-opacity:1;fill-rule:nonzero;stroke:none"
           id="path1193" />
      </g>
      <g
         id="g1195"
         transform="translate(101.3405,290.2697)"
         style="fill:#ffffff">
        <path
           d="m 0,0 c -0.079,-0.057 -0.165,-0.1 -0.248,-0.15 0.091,0.027 0.182,0.048 0.271,0.06 C 0.104,-0.08 0.057,0.04 0,0"
           style="fill:#ffffff;fill-opacity:1;fill-rule:nonzero;stroke:none"
           id="path1197" />
      </g>
      <g
         id="g1199"
         transform="translate(101.0924,290.1193)"
         style="fill:#ffffff">
        <path
           d="M 0,0 C -0.334,-0.097 -0.679,-0.288 -1.008,-0.513 -0.664,-0.352 -0.321,-0.192 0,0"
           style="fill:#ffffff;fill-opacity:1;fill-rule:nonzero;stroke:none"
           id="path1201" />
      </g>
      <g
         id="g1203"
         transform="translate(97.5914,287.8815)"
         style="fill:#ffffff">
        <path
           d="m 0,0 c -1.17,-1.068 -2.182,-2.32 -3.234,-3.515 -1.157,-1.317 -2.263,-2.692 -3.308,-4.112 -0.489,-0.667 -0.967,-1.345 -1.423,-2.038 -0.473,-0.719 -1.082,-1.514 -1.334,-2.356 -0.111,-0.375 0.365,-0.665 0.614,-0.384 0.528,0.598 0.888,1.424 1.32,2.107 0.423,0.673 0.866,1.332 1.323,1.977 1.003,1.419 2.086,2.766 3.129,4.147 0.914,1.214 1.844,2.418 2.856,3.538 0.485,0.534 0.983,1.067 1.519,1.539 C 1.75,1.158 2.11,1.464 2.493,1.726 2.231,1.603 1.97,1.476 1.729,1.319 1.122,0.922 0.541,0.496 0,0"
           style="fill:#ffffff;fill-opacity:1;fill-rule:nonzero;stroke:none"
           id="path1205" />
      </g>
      <g
         id="g1207"
         transform="translate(97.7291,285.4909)"
         style="fill:#ffffff">
        <path
           d="m 0,0 c -1.52,-1.776 -3.031,-3.578 -4.467,-5.433 -1.421,-1.838 -2.66,-3.793 -3.963,-5.724 -0.302,-0.449 0.441,-0.936 0.701,-0.441 1.066,2.037 2.357,3.969 3.614,5.873 1.302,1.971 2.682,3.847 4.205,5.628 C 0.145,-0.032 0.055,0.065 0,0"
           style="fill:#ffffff;fill-opacity:1;fill-rule:nonzero;stroke:none"
           id="path1209" />
      </g>
      <g
         id="g1211"
         transform="translate(149.4,267.0051)"
         style="fill:#ffffff">
        <path
           d="m 0,0 c -0.861,2.362 -2.438,4.099 -4.569,5.172 -2.136,1.076 -4.431,1.39 -6.749,0.965 -2.877,-0.528 -5.609,-2.114 -7.979,-3.882 -2.327,-1.737 -4.418,-3.841 -6.27,-6.142 -0.065,-0.083 0.043,-0.2 0.109,-0.119 3.182,3.883 7.581,7.192 12.319,8.391 4.118,1.044 9.248,0.088 11.486,-4.17 1.149,-2.186 1.241,-4.779 1.12,-7.226 -0.136,-2.737 -0.435,-5.477 -1.183,-8.107 -0.698,-2.455 -1.744,-4.729 -2.886,-6.974 -1.155,-2.268 -2.484,-4.445 -4.042,-6.417 -3.745,-4.741 -8.232,-8.576 -12.634,-12.573 -0.026,-0.025 0.009,-0.077 0.039,-0.052 4.282,3.535 8.537,7.265 12.237,11.505 1.71,1.958 3.368,4.01 4.791,6.218 1.426,2.212 2.535,4.648 3.362,7.187 0.879,2.705 1.399,5.554 1.608,8.41 C 0.949,-5.214 0.896,-2.461 0,0"
           style="fill:#ffffff;fill-opacity:1;fill-rule:nonzero;stroke:none"
           id="path1213" />
      </g>
      <g
         id="g1215"
         transform="translate(146.3908,264.0412)"
         style="fill:#ffffff">
        <path
           d="m 0,0 c -1.33,3.331 -4.667,5.063 -7.908,5.219 -2.053,0.099 -4.022,-0.484 -5.857,-1.443 -0.486,-0.253 -1.012,-0.515 -1.432,-0.884 -0.453,-0.401 -0.872,-0.817 -1.345,-1.193 -0.871,-0.688 -1.75,-1.331 -2.569,-2.093 -0.04,-0.036 0.012,-0.107 0.056,-0.077 0.754,0.529 1.494,1.09 2.261,1.597 0.418,0.275 0.864,0.539 1.326,0.713 0.433,0.162 0.861,0.269 1.285,0.468 1.613,0.749 3.392,1.338 5.158,1.438 2.88,0.166 6.067,-1.029 7.546,-3.841 0.94,-1.785 1.034,-3.939 0.931,-5.942 -0.106,-2.028 -0.513,-4.02 -1.077,-5.957 -1.141,-3.918 -2.935,-7.569 -5.05,-10.976 -2.347,-3.779 -4.994,-7.283 -8.108,-10.365 -0.023,-0.023 0.011,-0.06 0.034,-0.037 2.973,2.797 5.72,5.898 8.078,9.31 2.367,3.424 4.507,7.255 5.916,11.25 0.719,2.045 1.208,4.171 1.416,6.345 C 0.869,-4.306 0.808,-2.022 0,0"
           style="fill:#ffffff;fill-opacity:1;fill-rule:nonzero;stroke:none"
           id="path1217" />
      </g>
      <g
         id="g1219"
         transform="translate(143.2697,261.5412)"
         style="fill:#ffffff">
        <path
           d="m 0,0 c -1.055,2.076 -3.091,3.713 -5.293,4.029 -2.634,0.38 -5.14,-0.965 -6.864,-3.047 -0.035,-0.045 0.02,-0.103 0.061,-0.065 3.221,2.982 8.768,2.332 10.887,-1.774 1.19,-2.307 0.698,-5.012 0.178,-7.45 -0.552,-2.598 -1.412,-5.12 -2.445,-7.538 -1.168,-2.737 -2.55,-5.36 -4.177,-7.812 -0.027,-0.04 0.034,-0.077 0.06,-0.037 3.208,4.797 5.59,10.023 7.436,15.573 C 0.736,-5.429 1.342,-2.645 0,0"
           style="fill:#ffffff;fill-opacity:1;fill-rule:nonzero;stroke:none"
           id="path1221" />
      </g>
      <g
         id="g1223"
         transform="translate(122.6754,224.072)"
         style="fill:#ffffff">
        <path
           d="m 0,0 c -7.243,6.336 -14.609,12.783 -19.934,21.132 -2.587,4.054 -4.759,8.691 -4.724,13.716 0.03,4.503 1.852,8.925 5.681,11.087 2.003,1.133 4.301,1.516 6.486,0.775 1.194,-0.403 2.441,-1.05 3.503,-1.763 1.108,-0.742 2.083,-1.614 2.929,-2.683 0.02,-0.026 0.064,0.009 0.044,0.036 -1.322,1.889 -2.99,3.828 -4.994,4.881 -2.03,1.067 -4.143,1.616 -6.395,1.173 -4.476,-0.882 -7.641,-5.261 -8.425,-9.875 -0.886,-5.22 0.738,-10.389 3.262,-14.814 2.558,-4.484 5.995,-8.502 9.547,-12.097 C -8.922,7.425 -4.542,3.614 -0.145,-0.153 -0.043,-0.242 0.103,-0.089 0,0"
           style="fill:#ffffff;fill-opacity:1;fill-rule:nonzero;stroke:none"
           id="path1225" />
      </g>
      <g
         id="g1227"
         transform="translate(116.4865,231.4948)"
         style="fill:#ffffff">
        <path
           d="m 0,0 c -4.611,4.646 -9.135,9.479 -12.372,15.363 -1.562,2.838 -2.916,5.931 -3.516,9.181 -0.305,1.658 -0.359,3.416 0.046,5.06 0.425,1.719 1.416,3.082 2.536,4.354 0.586,0.667 1.237,1.295 2.013,1.695 0.73,0.376 1.588,0.514 2.392,0.543 0.876,0.031 1.716,-0.189 2.564,-0.398 0.919,-0.225 1.75,-0.533 2.583,-1.011 0.137,-0.079 0.311,0.13 0.175,0.245 -1.295,1.091 -2.601,2.193 -4.217,2.665 -1.698,0.493 -3.367,0.304 -4.879,-0.691 -1.514,-0.997 -2.692,-2.566 -3.616,-4.172 -0.912,-1.585 -1.327,-3.448 -1.273,-5.305 0.106,-3.649 1.556,-7.156 3.225,-10.274 1.681,-3.141 3.818,-5.929 6.063,-8.617 2.567,-3.076 5.367,-5.924 8.121,-8.805 C -0.055,-0.271 0.103,-0.105 0,0"
           style="fill:#ffffff;fill-opacity:1;fill-rule:nonzero;stroke:none"
           id="path1229" />
      </g>
      <g
         id="g1231"
         transform="translate(111.5236,264.0666)"
         style="fill:#ffffff">
        <path
           d="m 0,0 c -1.337,1.103 -3.309,1.825 -4.987,1.45 -1.641,-0.365 -3.183,-1.706 -3.989,-3.261 -0.891,-1.721 -0.86,-3.755 -0.554,-5.643 0.328,-2.033 1.122,-3.951 1.916,-5.814 0.959,-2.246 2.116,-4.399 3.44,-6.421 0.013,-0.019 0.044,-0.002 0.031,0.019 -2.029,3.115 -3.66,6.661 -4.388,10.398 -0.356,1.823 -0.456,3.618 0.114,5.399 0.5,1.562 1.512,2.908 2.923,3.607 0.762,0.377 1.611,0.632 2.442,0.754 1.049,0.155 2.022,-0.152 2.941,-0.69 C 0.017,-0.277 0.108,-0.089 0,0"
           style="fill:#ffffff;fill-opacity:1;fill-rule:nonzero;stroke:none"
           id="path1233" />
      </g>
      <g
         id="g1235"
         transform="translate(136.173,282.3493)"
         style="fill:#ffffff">
        <path
           d="M 0,0 C -1.665,-0.339 -3.197,1.064 -3.312,2.84 -3.33,3.121 -3.607,3.193 -3.764,3.062 -3.891,3.083 -4.03,3.016 -4.025,2.838 c 0.02,-1.032 -0.185,-2.055 -0.61,-2.982 -0.208,-0.452 -0.46,-0.884 -0.761,-1.273 -0.133,-0.172 -0.286,-0.37 -0.452,-0.551 -0.29,-0.124 -0.543,-0.318 -0.709,-0.607 -0.14,-0.241 0.145,-0.5 0.349,-0.367 l 0.006,-0.014 c 0.318,0.222 0.588,0.395 0.978,0.422 0.354,0.025 0.706,-0.065 1.028,-0.216 0.322,-0.15 0.602,-0.384 0.861,-0.637 0.039,-0.125 0.112,-0.239 0.229,-0.312 0.034,-0.021 0.068,-0.025 0.102,-0.038 0.078,-0.091 0.159,-0.179 0.236,-0.269 0.144,-0.168 0.316,-0.311 0.449,-0.485 0.139,-0.184 0.441,-0.032 0.432,0.191 -0.01,0.265 0.016,0.532 0.059,0.797 0.038,0.038 0.077,0.079 0.104,0.13 0.134,0.256 0.2,0.54 0.207,0.828 0.024,0.087 0.053,0.171 0.082,0.257 0.358,0.705 0.911,1.292 1.618,1.579 C 0.595,-0.543 0.438,0.089 0,0"
           style="fill:#ffffff;fill-opacity:1;fill-rule:nonzero;stroke:none"
           id="path1237" />
      </g>
      <g
         id="g1239"
         transform="translate(156.8585,248.3317)"
         style="fill:#ffffff">
        <path
           d="m 0,0 c -0.749,-0.188 -1.498,0.268 -1.765,1.032 -0.28,0.8 -0.265,1.677 -0.523,2.481 -0.109,0.341 -0.46,0.356 -0.645,0.12 C -2.985,3.606 -3.03,3.559 -3.049,3.479 -3.064,3.425 -3.083,3.374 -3.099,3.32 -3.413,2.525 -3.866,1.765 -4.25,1.013 -4.52,0.483 -4.844,-0.249 -5.4,-0.488 c -0.456,-0.197 -0.564,-0.964 0,-1.116 0.037,-0.009 0.071,-0.031 0.107,-0.043 0.03,-0.096 0.104,-0.18 0.19,-0.217 0.555,-0.226 1.058,-0.731 1.447,-1.196 0.409,-0.491 0.736,-1.026 0.908,-1.663 0.104,-0.385 0.732,-0.332 0.681,0.099 -0.105,0.88 0.164,1.63 0.617,2.268 0.043,0.037 0.083,0.073 0.131,0.111 0.094,0.07 0.142,0.159 0.165,0.252 0.422,0.481 0.936,0.893 1.452,1.236 C 0.673,-0.509 0.428,0.108 0,0"
           style="fill:#ffffff;fill-opacity:1;fill-rule:nonzero;stroke:none"
           id="path1241" />
      </g>
      <g
         id="g1243"
         transform="translate(87.0934,290.0749)"
         style="fill:#ffffff">
        <path
           d="m 0,0 c -1.094,0.21 -2.178,1.128 -2.387,2.33 -0.1,0.569 -0.975,0.442 -0.945,-0.138 0.037,-0.717 -0.138,-1.393 -0.474,-2.013 -0.167,-0.307 -0.361,-0.591 -0.587,-0.854 -0.24,-0.282 -0.517,-0.515 -0.74,-0.813 0.003,-0.002 0.006,-0.004 0.008,-0.007 -0.131,-0.141 -0.142,-0.321 -0.066,-0.462 -0.165,-0.197 -0.022,-0.533 0.225,-0.532 0.43,0.002 0.845,-0.265 1.147,-0.57 0.351,-0.355 0.439,-0.721 0.535,-1.21 0.046,-0.233 0.287,-0.38 0.495,-0.347 0.239,0.038 0.368,0.228 0.393,0.477 0.067,0.658 0.516,1.365 0.904,1.859 0.21,0.267 0.435,0.521 0.682,0.748 0.125,0.115 0.264,0.257 0.413,0.337 0.161,0.084 0.353,0.093 0.522,0.173 C 0.521,-0.829 0.426,-0.081 0,0"
           style="fill:#ffffff;fill-opacity:1;fill-rule:nonzero;stroke:none"
           id="path1245" />
      </g>
      <g
         id="g1247"
         transform="translate(83.3517,235.8649)"
         style="fill:#ffffff">
        <path
           d="M 0,0 C 0.069,0.294 -0.298,0.568 -0.504,0.312 -0.523,0.289 -0.543,0.267 -0.561,0.244 -0.684,0.065 -1.213,0.296 -1.351,0.349 -1.658,0.468 -1.961,0.648 -2.227,0.853 -2.751,1.255 -3.184,1.85 -3.402,2.5 -3.545,2.922 -4.185,3.013 -4.288,2.5 -4.35,2.188 -4.363,1.882 -4.45,1.574 -4.53,1.296 -4.613,1.02 -4.704,0.747 -4.883,0.2 -5.075,-0.343 -5.324,-0.856 c -0.141,-0.163 -0.281,-0.33 -0.444,-0.469 -0.263,-0.221 -0.029,-0.655 0.256,-0.664 1.561,-0.048 2.788,-1.308 3.087,-2.915 0.097,-0.459 0.764,-0.357 0.759,0.109 -0.003,0.345 -0.077,0.676 -0.178,0.995 -0.002,0.563 0.157,1.147 0.372,1.608 0.28,0.593 0.659,1.128 1.06,1.634 C -0.216,-0.457 -0.066,-0.283 0,0"
           style="fill:#ffffff;fill-opacity:1;fill-rule:nonzero;stroke:none"
           id="path1249" />
      </g>
    </g>
  </g>
</svg>
